<svg xmlns="http://www.w3.org/2000/svg" viewBox="0 0 1180 14896" role="img" aria-label="DFD Level 2"><defs><marker id="arrow" markerWidth="12" markerHeight="12" refX="10" refY="6" orient="auto"><path d="M2,2 L10,6 L2,10 z"/></marker></defs><style>.dfd-title{font:700 22px Arial,sans-serif;text-anchor:middle;fill:#172033}.dfd-node rect,.dfd-node ellipse,.dfd-store path{fill:#fff;stroke:#172033;stroke-width:2}.dfd-process ellipse{fill:#f9fcff}.dfd-entity rect{fill:#fff}.dfd-store path{fill:none}.dfd-node text{font:600 13px Arial,sans-serif;text-anchor:middle;dominant-baseline:middle;fill:#172033}.dfd-store text{font-weight:600}.dfd-flow path{fill:none;stroke:#2f3b4f;stroke-width:1.6;shape-rendering:geometricPrecision}.dfd-flow text{font:12px Arial,sans-serif;text-anchor:middle;fill:#2f3b4f;paint-order:stroke;stroke:#fff;stroke-width:5px;stroke-linejoin:round}marker path{fill:#2f3b4f}@media(prefers-color-scheme:dark){.dfd-title,.dfd-node text{fill:#eef3ff}.dfd-node rect,.dfd-node ellipse{fill:#152033;stroke:#d8e1f3}.dfd-process ellipse{fill:#172a42}.dfd-store path{stroke:#d8e1f3}.dfd-flow path{stroke:#c7d2e6}.dfd-flow text{fill:#eef3ff;stroke:#111827}marker path{fill:#c7d2e6}}</style><g transform="translate(0 0)"><text class="dfd-title" x="590" y="38">Level 2 Autentikasi</text><g class="dfd-flow"><path d="M 575 162 L 575 190" marker-end="url(#arrow)"/><text x="575" y="169">Data Login</text></g><g class="dfd-flow"><path d="M 575 260 L 575 288" marker-end="url(#arrow)"/><text x="575" y="267">Data Bisnis</text></g><g class="dfd-flow"><path d="M 575 358 L 575 386" marker-end="url(#arrow)"/><text x="575" y="365">Data Login</text></g><g class="dfd-flow"><path d="M 233 135 L 233 131 L 415 131 L 415 127" marker-end="url(#arrow)"/><text x="324" y="124">Data Bisnis</text></g><g class="dfd-flow"><path d="M 575 456 L 575 484" marker-end="url(#arrow)"/><text x="575" y="463">Data Login</text></g><g class="dfd-flow"><path d="M 575 554 L 575 582" marker-end="url(#arrow)"/><text x="575" y="561">Data Login</text></g><g class="dfd-flow"><path d="M 575 652 L 575 680" marker-end="url(#arrow)"/><text x="575" y="659">Data Bisnis</text></g><g class="dfd-flow"><path d="M 575 750 L 575 778" marker-end="url(#arrow)"/><text x="575" y="757">Data Login</text></g><g class="dfd-flow"><path d="M 575 848 L 575 876" marker-end="url(#arrow)"/><text x="575" y="855">Data Login</text></g><g class="dfd-flow"><path d="M 575 946 L 575 974" marker-end="url(#arrow)"/><text x="575" y="953">Data Login</text></g><g class="dfd-flow"><path d="M 575 1044 L 575 1072" marker-end="url(#arrow)"/><text x="575" y="1051">Data Bisnis</text></g><g class="dfd-flow"><path d="M 575 1142 L 575 1170" marker-end="url(#arrow)"/><text x="575" y="1149">Data Login</text></g><g class="dfd-flow"><path d="M 575 1240 L 575 1268" marker-end="url(#arrow)"/><text x="575" y="1247">Data Login</text></g><g class="dfd-flow"><path d="M 575 1338 L 575 1366" marker-end="url(#arrow)"/><text x="575" y="1345">Data Login</text></g><g class="dfd-flow"><path d="M 575 1436 L 575 1464" marker-end="url(#arrow)"/><text x="575" y="1443">Data Bisnis</text></g><g class="dfd-flow"><path d="M 575 1534 L 575 1562" marker-end="url(#arrow)"/><text x="575" y="1541">Data Login</text></g><g class="dfd-flow"><path d="M 575 1632 L 575 1660" marker-end="url(#arrow)"/><text x="575" y="1639">Data Login</text></g><g class="dfd-flow"><path d="M 575 1730 L 575 1758" marker-end="url(#arrow)"/><text x="575" y="1737">Data Login</text></g><g class="dfd-flow"><path d="M 575 1828 L 575 1856" marker-end="url(#arrow)"/><text x="575" y="1835">Data Bisnis</text></g><g class="dfd-flow"><path d="M 575 1926 L 575 1954" marker-end="url(#arrow)"/><text x="575" y="1933">Data Login</text></g><g class="dfd-flow"><path d="M 575 2024 L 575 2052" marker-end="url(#arrow)"/><text x="575" y="2031">Data Login</text></g><g class="dfd-flow"><path d="M 575 2122 L 575 2150" marker-end="url(#arrow)"/><text x="575" y="2129">Data Login</text></g><g class="dfd-flow"><path d="M 575 2220 L 575 2248" marker-end="url(#arrow)"/><text x="575" y="2227">Data Bisnis</text></g><g class="dfd-flow"><path d="M 575 2318 L 575 2346" marker-end="url(#arrow)"/><text x="575" y="2325">Data Login</text></g><g class="dfd-flow"><path d="M 575 2416 L 575 2444" marker-end="url(#arrow)"/><text x="575" y="2423">Data Login</text></g><g class="dfd-flow"><path d="M 575 2514 L 575 2542" marker-end="url(#arrow)"/><text x="575" y="2521">Data Login</text></g><g class="dfd-flow"><path d="M 575 2612 L 575 2640" marker-end="url(#arrow)"/><text x="575" y="2619">Data Bisnis</text></g><g class="dfd-flow"><path d="M 575 2710 L 575 2738" marker-end="url(#arrow)"/><text x="575" y="2717">Data Login</text></g><g class="dfd-node dfd-entity" data-id="external.client"><rect x="58" y="100" width="175" height="70" rx="4"/><text x="145" y="127"><tspan x="145" dy="0">User</tspan></text></g><g class="dfd-node dfd-process" data-id="process.level2.authentication.1"><ellipse cx="575" cy="127" rx="160" ry="35"/><text x="575" y="119"><tspan x="575" dy="0">1.1 Input Data Login</tspan></text></g><g class="dfd-node dfd-process" data-id="process.level2.authentication.2"><ellipse cx="575" cy="225" rx="160" ry="35"/><text x="575" y="217"><tspan x="575" dy="0">1.2 Validasi Login</tspan></text></g><g class="dfd-node dfd-process" data-id="process.level2.authentication.3"><ellipse cx="575" cy="323" rx="160" ry="35"/><text x="575" y="315"><tspan x="575" dy="0">1.3 Buat Sesi User</tspan></text></g><g class="dfd-node dfd-process" data-id="process.level2.authentication.4"><ellipse cx="575" cy="421" rx="160" ry="35"/><text x="575" y="413"><tspan x="575" dy="0">1.4 Kirim Status Login</tspan></text></g><g class="dfd-node dfd-process" data-id="process.level2.authentication.5"><ellipse cx="575" cy="519" rx="160" ry="35"/><text x="575" y="511"><tspan x="575" dy="0">1.5 Input Data Login</tspan></text></g><g class="dfd-node dfd-process" data-id="process.level2.authentication.6"><ellipse cx="575" cy="617" rx="160" ry="35"/><text x="575" y="609"><tspan x="575" dy="0">1.6 Validasi Login</tspan></text></g><g class="dfd-node dfd-process" data-id="process.level2.authentication.7"><ellipse cx="575" cy="715" rx="160" ry="35"/><text x="575" y="707"><tspan x="575" dy="0">1.7 Buat Sesi User</tspan></text></g><g class="dfd-node dfd-process" data-id="process.level2.authentication.8"><ellipse cx="575" cy="813" rx="160" ry="35"/><text x="575" y="805"><tspan x="575" dy="0">1.8 Kirim Status Login</tspan></text></g><g class="dfd-node dfd-process" data-id="process.level2.authentication.9"><ellipse cx="575" cy="911" rx="160" ry="35"/><text x="575" y="903"><tspan x="575" dy="0">1.9 Input Data Login</tspan></text></g><g class="dfd-node dfd-process" data-id="process.level2.authentication.10"><ellipse cx="575" cy="1009" rx="160" ry="35"/><text x="575" y="1001"><tspan x="575" dy="0">1.10 Validasi Login</tspan></text></g><g class="dfd-node dfd-process" data-id="process.level2.authentication.11"><ellipse cx="575" cy="1107" rx="160" ry="35"/><text x="575" y="1099"><tspan x="575" dy="0">1.11 Buat Sesi User</tspan></text></g><g class="dfd-node dfd-process" data-id="process.level2.authentication.12"><ellipse cx="575" cy="1205" rx="160" ry="35"/><text x="575" y="1197"><tspan x="575" dy="0">1.12 Kirim Status Login</tspan></text></g><g class="dfd-node dfd-process" data-id="process.level2.authentication.13"><ellipse cx="575" cy="1303" rx="160" ry="35"/><text x="575" y="1295"><tspan x="575" dy="0">1.13 Input Data Login</tspan></text></g><g class="dfd-node dfd-process" data-id="process.level2.authentication.14"><ellipse cx="575" cy="1401" rx="160" ry="35"/><text x="575" y="1393"><tspan x="575" dy="0">1.14 Validasi Login</tspan></text></g><g class="dfd-node dfd-process" data-id="process.level2.authentication.15"><ellipse cx="575" cy="1499" rx="160" ry="35"/><text x="575" y="1491"><tspan x="575" dy="0">1.15 Buat Sesi User</tspan></text></g><g class="dfd-node dfd-process" data-id="process.level2.authentication.16"><ellipse cx="575" cy="1597" rx="160" ry="35"/><text x="575" y="1589"><tspan x="575" dy="0">1.16 Kirim Status Login</tspan></text></g><g class="dfd-node dfd-process" data-id="process.level2.authentication.17"><ellipse cx="575" cy="1695" rx="160" ry="35"/><text x="575" y="1687"><tspan x="575" dy="0">1.17 Input Data Login</tspan></text></g><g class="dfd-node dfd-process" data-id="process.level2.authentication.18"><ellipse cx="575" cy="1793" rx="160" ry="35"/><text x="575" y="1785"><tspan x="575" dy="0">1.18 Validasi Login</tspan></text></g><g class="dfd-node dfd-process" data-id="process.level2.authentication.19"><ellipse cx="575" cy="1891" rx="160" ry="35"/><text x="575" y="1883"><tspan x="575" dy="0">1.19 Buat Sesi User</tspan></text></g><g class="dfd-node dfd-process" data-id="process.level2.authentication.20"><ellipse cx="575" cy="1989" rx="160" ry="35"/><text x="575" y="1981"><tspan x="575" dy="0">1.20 Kirim Status Login</tspan></text></g><g class="dfd-node dfd-process" data-id="process.level2.authentication.21"><ellipse cx="575" cy="2087" rx="160" ry="35"/><text x="575" y="2079"><tspan x="575" dy="0">1.21 Input Data Login</tspan></text></g><g class="dfd-node dfd-process" data-id="process.level2.authentication.22"><ellipse cx="575" cy="2185" rx="160" ry="35"/><text x="575" y="2177"><tspan x="575" dy="0">1.22 Validasi Login</tspan></text></g><g class="dfd-node dfd-process" data-id="process.level2.authentication.23"><ellipse cx="575" cy="2283" rx="160" ry="35"/><text x="575" y="2275"><tspan x="575" dy="0">1.23 Buat Sesi User</tspan></text></g><g class="dfd-node dfd-process" data-id="process.level2.authentication.24"><ellipse cx="575" cy="2381" rx="160" ry="35"/><text x="575" y="2373"><tspan x="575" dy="0">1.24 Kirim Status Login</tspan></text></g><g class="dfd-node dfd-process" data-id="process.level2.authentication.25"><ellipse cx="575" cy="2479" rx="160" ry="35"/><text x="575" y="2471"><tspan x="575" dy="0">1.25 Input Data Login</tspan></text></g><g class="dfd-node dfd-process" data-id="process.level2.authentication.26"><ellipse cx="575" cy="2577" rx="160" ry="35"/><text x="575" y="2569"><tspan x="575" dy="0">1.26 Validasi Login</tspan></text></g><g class="dfd-node dfd-process" data-id="process.level2.authentication.27"><ellipse cx="575" cy="2675" rx="160" ry="35"/><text x="575" y="2667"><tspan x="575" dy="0">1.27 Buat Sesi User</tspan></text></g><g class="dfd-node dfd-process" data-id="process.level2.authentication.28"><ellipse cx="575" cy="2773" rx="160" ry="35"/><text x="575" y="2765"><tspan x="575" dy="0">1.28 Kirim Status Login</tspan></text></g></g><g transform="translate(0 2990)"><text class="dfd-title" x="590" y="38">Level 2 Manajemen Produk</text><g class="dfd-flow"><path d="M 575 162 L 575 190" marker-end="url(#arrow)"/><text x="575" y="169">Data Produk</text></g><g class="dfd-flow"><path d="M 575 260 L 575 288" marker-end="url(#arrow)"/><text x="575" y="267">Data Produk</text></g><g class="dfd-flow"><path d="M 233 135 L 233 131 L 415 131 L 415 127" marker-end="url(#arrow)"/><text x="324" y="124">Data Produk</text></g><g class="dfd-flow"><path d="M 575 358 L 575 386" marker-end="url(#arrow)"/><text x="575" y="365">Data Produk</text></g><g class="dfd-flow"><path d="M 575 456 L 575 484" marker-end="url(#arrow)"/><text x="575" y="463">Data Produk</text></g><g class="dfd-flow"><path d="M 575 554 L 575 582" marker-end="url(#arrow)"/><text x="575" y="561">Data Produk</text></g><g class="dfd-flow"><path d="M 575 652 L 575 680" marker-end="url(#arrow)"/><text x="575" y="659">Data Produk</text></g><g class="dfd-flow"><path d="M 575 750 L 575 778" marker-end="url(#arrow)"/><text x="575" y="757">Data Produk</text></g><g class="dfd-flow"><path d="M 575 848 L 575 876" marker-end="url(#arrow)"/><text x="575" y="855">Data Produk</text></g><g class="dfd-node dfd-entity" data-id="external.client"><rect x="58" y="100" width="175" height="70" rx="4"/><text x="145" y="127"><tspan x="145" dy="0">User</tspan></text></g><g class="dfd-node dfd-process" data-id="process.level2.product.1"><ellipse cx="575" cy="127" rx="160" ry="35"/><text x="575" y="119"><tspan x="575" dy="0">2.1 Ambil Data Produk</tspan></text></g><g class="dfd-node dfd-process" data-id="process.level2.product.2"><ellipse cx="575" cy="225" rx="160" ry="35"/><text x="575" y="217"><tspan x="575" dy="-9">2.2 Susun Informasi</tspan><tspan x="575" dy="18">Produk</tspan></text></g><g class="dfd-node dfd-process" data-id="process.level2.product.3"><ellipse cx="575" cy="323" rx="160" ry="35"/><text x="575" y="315"><tspan x="575" dy="-9">2.3 Tampilkan Daftar</tspan><tspan x="575" dy="18">Produk</tspan></text></g><g class="dfd-node dfd-process" data-id="process.level2.product.4"><ellipse cx="575" cy="421" rx="160" ry="35"/><text x="575" y="413"><tspan x="575" dy="0">2.4 Ambil Data Produk</tspan></text></g><g class="dfd-node dfd-process" data-id="process.level2.product.5"><ellipse cx="575" cy="519" rx="160" ry="35"/><text x="575" y="511"><tspan x="575" dy="-9">2.5 Susun Informasi</tspan><tspan x="575" dy="18">Produk</tspan></text></g><g class="dfd-node dfd-process" data-id="process.level2.product.6"><ellipse cx="575" cy="617" rx="160" ry="35"/><text x="575" y="609"><tspan x="575" dy="-9">2.6 Tampilkan Daftar</tspan><tspan x="575" dy="18">Produk</tspan></text></g><g class="dfd-node dfd-process" data-id="process.level2.product.7"><ellipse cx="575" cy="715" rx="160" ry="35"/><text x="575" y="707"><tspan x="575" dy="0">2.7 Ambil Data Produk</tspan></text></g><g class="dfd-node dfd-process" data-id="process.level2.product.8"><ellipse cx="575" cy="813" rx="160" ry="35"/><text x="575" y="805"><tspan x="575" dy="-9">2.8 Susun Informasi</tspan><tspan x="575" dy="18">Produk</tspan></text></g><g class="dfd-node dfd-process" data-id="process.level2.product.9"><ellipse cx="575" cy="911" rx="160" ry="35"/><text x="575" y="903"><tspan x="575" dy="-9">2.9 Tampilkan Daftar</tspan><tspan x="575" dy="18">Produk</tspan></text></g></g><g transform="translate(0 4118)"><text class="dfd-title" x="590" y="38">Level 2 Manajemen Dashboard  G E T| H E A D admin __  Filament Icon.resolve  Filament.has Top Navigation  Filament.get Widgets this.filter Visible Widgets this.get Widgets</text><g class="dfd-flow"><path d="M 575 162 L 575 190" marker-end="url(#arrow)"/><text x="575" y="169">Data Bisnis</text></g><g class="dfd-flow"><path d="M 233 135 L 233 131 L 415 131 L 415 127" marker-end="url(#arrow)"/><text x="324" y="124">Data Bisnis</text></g><g class="dfd-node dfd-entity" data-id="external.client"><rect x="58" y="100" width="175" height="70" rx="4"/><text x="145" y="127"><tspan x="145" dy="0">User</tspan></text></g><g class="dfd-node dfd-process" data-id="process.level2.dashboard-g-e-t-h-e-a-d-admin-filament-icon-resolve-filament-has-top-navigation-filament-get-widgets-this-filter-visible-widgets-this-get-widgets.1"><ellipse cx="575" cy="127" rx="160" ry="35"/><text x="575" y="119"><tspan x="575" dy="0">3.1 Ambil Data</tspan></text></g><g class="dfd-node dfd-process" data-id="process.level2.dashboard-g-e-t-h-e-a-d-admin-filament-icon-resolve-filament-has-top-navigation-filament-get-widgets-this-filter-visible-widgets-this-get-widgets.2"><ellipse cx="575" cy="225" rx="160" ry="35"/><text x="575" y="217"><tspan x="575" dy="0">3.2 Kelola Dashboard</tspan></text></g></g><g transform="translate(0 4714)"><text class="dfd-title" x="590" y="38">Level 2 Manajemen Create Action.make</text><g class="dfd-flow"><path d="M 575 162 L 575 190" marker-end="url(#arrow)"/><text x="575" y="169">Data Bisnis</text></g><g class="dfd-flow"><path d="M 233 135 L 233 131 L 415 131 L 415 127" marker-end="url(#arrow)"/><text x="324" y="124">Data Bisnis</text></g><g class="dfd-flow"><path d="M 575 260 L 575 288" marker-end="url(#arrow)"/><text x="575" y="267">Data Bisnis</text></g><g class="dfd-flow"><path d="M 575 358 L 575 386" marker-end="url(#arrow)"/><text x="575" y="365">Data Bisnis</text></g><g class="dfd-flow"><path d="M 575 456 L 575 484" marker-end="url(#arrow)"/><text x="575" y="463">Data Bisnis</text></g><g class="dfd-flow"><path d="M 575 554 L 575 582" marker-end="url(#arrow)"/><text x="575" y="561">Data Bisnis</text></g><g class="dfd-flow"><path d="M 575 652 L 575 680" marker-end="url(#arrow)"/><text x="575" y="659">Data Bisnis</text></g><g class="dfd-flow"><path d="M 575 750 L 575 778" marker-end="url(#arrow)"/><text x="575" y="757">Data Bisnis</text></g><g class="dfd-flow"><path d="M 575 848 L 575 876" marker-end="url(#arrow)"/><text x="575" y="855">Data Bisnis</text></g><g class="dfd-flow"><path d="M 575 946 L 575 974" marker-end="url(#arrow)"/><text x="575" y="953">Data Bisnis</text></g><g class="dfd-flow"><path d="M 575 1044 L 575 1072" marker-end="url(#arrow)"/><text x="575" y="1051">Data Bisnis</text></g><g class="dfd-flow"><path d="M 575 1142 L 575 1170" marker-end="url(#arrow)"/><text x="575" y="1149">Data Bisnis</text></g><g class="dfd-node dfd-entity" data-id="external.client"><rect x="58" y="100" width="175" height="70" rx="4"/><text x="145" y="127"><tspan x="145" dy="0">User</tspan></text></g><g class="dfd-node dfd-process" data-id="process.level2.create-action-make.1"><ellipse cx="575" cy="127" rx="160" ry="35"/><text x="575" y="119"><tspan x="575" dy="0">4.1 Simpan Data</tspan></text></g><g class="dfd-node dfd-process" data-id="process.level2.create-action-make.2"><ellipse cx="575" cy="225" rx="160" ry="35"/><text x="575" y="217"><tspan x="575" dy="-9">4.2 Kelola List Dana</tspan><tspan x="575" dy="18">Masuks</tspan></text></g><g class="dfd-node dfd-process" data-id="process.level2.create-action-make.3"><ellipse cx="575" cy="323" rx="160" ry="35"/><text x="575" y="315"><tspan x="575" dy="0">4.3 Simpan Data</tspan></text></g><g class="dfd-node dfd-process" data-id="process.level2.create-action-make.4"><ellipse cx="575" cy="421" rx="160" ry="35"/><text x="575" y="413"><tspan x="575" dy="-9">4.4 Kelola List Laporan</tspan><tspan x="575" dy="18">Keuangans</tspan></text></g><g class="dfd-node dfd-process" data-id="process.level2.create-action-make.5"><ellipse cx="575" cy="519" rx="160" ry="35"/><text x="575" y="511"><tspan x="575" dy="0">4.5 Simpan Data</tspan></text></g><g class="dfd-node dfd-process" data-id="process.level2.create-action-make.6"><ellipse cx="575" cy="617" rx="160" ry="35"/><text x="575" y="609"><tspan x="575" dy="-9">4.6 Kelola List Laporan</tspan><tspan x="575" dy="18">Wargas</tspan></text></g><g class="dfd-node dfd-process" data-id="process.level2.create-action-make.7"><ellipse cx="575" cy="715" rx="160" ry="35"/><text x="575" y="707"><tspan x="575" dy="0">4.7 Simpan Data</tspan></text></g><g class="dfd-node dfd-process" data-id="process.level2.create-action-make.8"><ellipse cx="575" cy="813" rx="160" ry="35"/><text x="575" y="805"><tspan x="575" dy="-9">4.8 Kelola List</tspan><tspan x="575" dy="18">Pengeluarans</tspan></text></g><g class="dfd-node dfd-process" data-id="process.level2.create-action-make.9"><ellipse cx="575" cy="911" rx="160" ry="35"/><text x="575" y="903"><tspan x="575" dy="0">4.9 Simpan Data</tspan></text></g><g class="dfd-node dfd-process" data-id="process.level2.create-action-make.10"><ellipse cx="575" cy="1009" rx="160" ry="35"/><text x="575" y="1001"><tspan x="575" dy="-9">4.10 Kelola List Proyek</tspan><tspan x="575" dy="18">Kampungs</tspan></text></g><g class="dfd-node dfd-process" data-id="process.level2.create-action-make.11"><ellipse cx="575" cy="1107" rx="160" ry="35"/><text x="575" y="1099"><tspan x="575" dy="0">4.11 Simpan Data</tspan></text></g><g class="dfd-node dfd-process" data-id="process.level2.create-action-make.12"><ellipse cx="575" cy="1205" rx="160" ry="35"/><text x="575" y="1197"><tspan x="575" dy="0">4.12 Kelola List Users</tspan></text></g></g><g transform="translate(0 6136)"><text class="dfd-title" x="590" y="38">Level 2 Manajemen create</text><g class="dfd-flow"><path d="M 233 135 L 233 131 L 415 131 L 415 127" marker-end="url(#arrow)"/><text x="324" y="124">Data Bisnis</text></g><g class="dfd-flow"><path d="M 575 162 L 575 190" marker-end="url(#arrow)"/><text x="575" y="169">Data Bisnis</text></g><g class="dfd-flow"><path d="M 575 260 L 575 288" marker-end="url(#arrow)"/><text x="575" y="267">Data Bisnis</text></g><g class="dfd-flow"><path d="M 575 358 L 575 386" marker-end="url(#arrow)"/><text x="575" y="365">Data Bisnis</text></g><g class="dfd-flow"><path d="M 575 456 L 575 484" marker-end="url(#arrow)"/><text x="575" y="463">Data Bisnis</text></g><g class="dfd-node dfd-entity" data-id="external.client"><rect x="58" y="100" width="175" height="70" rx="4"/><text x="145" y="127"><tspan x="145" dy="0">User</tspan></text></g><g class="dfd-node dfd-process" data-id="process.level2.create.1"><ellipse cx="575" cy="127" rx="160" ry="35"/><text x="575" y="119"><tspan x="575" dy="-9">5.1 Kelola Create Dana</tspan><tspan x="575" dy="18">Masuk</tspan></text></g><g class="dfd-node dfd-process" data-id="process.level2.create.2"><ellipse cx="575" cy="225" rx="160" ry="35"/><text x="575" y="217"><tspan x="575" dy="-9">5.2 Kelola Create</tspan><tspan x="575" dy="18">Laporan Keuangan</tspan></text></g><g class="dfd-node dfd-process" data-id="process.level2.create.3"><ellipse cx="575" cy="323" rx="160" ry="35"/><text x="575" y="315"><tspan x="575" dy="-9">5.3 Kelola Create</tspan><tspan x="575" dy="18">Pengeluaran</tspan></text></g><g class="dfd-node dfd-process" data-id="process.level2.create.4"><ellipse cx="575" cy="421" rx="160" ry="35"/><text x="575" y="413"><tspan x="575" dy="-9">5.4 Kelola Create Proyek</tspan><tspan x="575" dy="18">Kampung</tspan></text></g><g class="dfd-node dfd-process" data-id="process.level2.create.5"><ellipse cx="575" cy="519" rx="160" ry="35"/><text x="575" y="511"><tspan x="575" dy="0">5.5 Kelola Create User</tspan></text></g></g><g transform="translate(0 6872)"><text class="dfd-title" x="590" y="38">Level 2 Manajemen Delete Action.make</text><g class="dfd-flow"><path d="M 575 162 L 575 190" marker-end="url(#arrow)"/><text x="575" y="169">Data Bisnis</text></g><g class="dfd-flow"><path d="M 233 135 L 233 131 L 415 131 L 415 127" marker-end="url(#arrow)"/><text x="324" y="124">Data Bisnis</text></g><g class="dfd-flow"><path d="M 575 260 L 575 288" marker-end="url(#arrow)"/><text x="575" y="267">Data Bisnis</text></g><g class="dfd-flow"><path d="M 575 358 L 575 386" marker-end="url(#arrow)"/><text x="575" y="365">Data Bisnis</text></g><g class="dfd-flow"><path d="M 575 456 L 575 484" marker-end="url(#arrow)"/><text x="575" y="463">Data Bisnis</text></g><g class="dfd-flow"><path d="M 575 554 L 575 582" marker-end="url(#arrow)"/><text x="575" y="561">Data Bisnis</text></g><g class="dfd-flow"><path d="M 575 652 L 575 680" marker-end="url(#arrow)"/><text x="575" y="659">Data Bisnis</text></g><g class="dfd-flow"><path d="M 575 750 L 575 778" marker-end="url(#arrow)"/><text x="575" y="757">Data Bisnis</text></g><g class="dfd-flow"><path d="M 575 848 L 575 876" marker-end="url(#arrow)"/><text x="575" y="855">Data Bisnis</text></g><g class="dfd-flow"><path d="M 575 946 L 575 974" marker-end="url(#arrow)"/><text x="575" y="953">Data Bisnis</text></g><g class="dfd-flow"><path d="M 575 1044 L 575 1072" marker-end="url(#arrow)"/><text x="575" y="1051">Data Bisnis</text></g><g class="dfd-flow"><path d="M 575 1142 L 575 1170" marker-end="url(#arrow)"/><text x="575" y="1149">Data Bisnis</text></g><g class="dfd-node dfd-entity" data-id="external.client"><rect x="58" y="100" width="175" height="70" rx="4"/><text x="145" y="127"><tspan x="145" dy="0">User</tspan></text></g><g class="dfd-node dfd-process" data-id="process.level2.delete-action-make.1"><ellipse cx="575" cy="127" rx="160" ry="35"/><text x="575" y="119"><tspan x="575" dy="0">6.1 Hapus Data</tspan></text></g><g class="dfd-node dfd-process" data-id="process.level2.delete-action-make.2"><ellipse cx="575" cy="225" rx="160" ry="35"/><text x="575" y="217"><tspan x="575" dy="-9">6.2 Kelola Edit Dana</tspan><tspan x="575" dy="18">Masuk</tspan></text></g><g class="dfd-node dfd-process" data-id="process.level2.delete-action-make.3"><ellipse cx="575" cy="323" rx="160" ry="35"/><text x="575" y="315"><tspan x="575" dy="0">6.3 Hapus Data</tspan></text></g><g class="dfd-node dfd-process" data-id="process.level2.delete-action-make.4"><ellipse cx="575" cy="421" rx="160" ry="35"/><text x="575" y="413"><tspan x="575" dy="-9">6.4 Kelola Edit Laporan</tspan><tspan x="575" dy="18">Keuangan</tspan></text></g><g class="dfd-node dfd-process" data-id="process.level2.delete-action-make.5"><ellipse cx="575" cy="519" rx="160" ry="35"/><text x="575" y="511"><tspan x="575" dy="0">6.5 Hapus Data</tspan></text></g><g class="dfd-node dfd-process" data-id="process.level2.delete-action-make.6"><ellipse cx="575" cy="617" rx="160" ry="35"/><text x="575" y="609"><tspan x="575" dy="-9">6.6 Kelola Edit Laporan</tspan><tspan x="575" dy="18">Warga</tspan></text></g><g class="dfd-node dfd-process" data-id="process.level2.delete-action-make.7"><ellipse cx="575" cy="715" rx="160" ry="35"/><text x="575" y="707"><tspan x="575" dy="0">6.7 Hapus Data</tspan></text></g><g class="dfd-node dfd-process" data-id="process.level2.delete-action-make.8"><ellipse cx="575" cy="813" rx="160" ry="35"/><text x="575" y="805"><tspan x="575" dy="-9">6.8 Kelola Edit</tspan><tspan x="575" dy="18">Pengeluaran</tspan></text></g><g class="dfd-node dfd-process" data-id="process.level2.delete-action-make.9"><ellipse cx="575" cy="911" rx="160" ry="35"/><text x="575" y="903"><tspan x="575" dy="0">6.9 Hapus Data</tspan></text></g><g class="dfd-node dfd-process" data-id="process.level2.delete-action-make.10"><ellipse cx="575" cy="1009" rx="160" ry="35"/><text x="575" y="1001"><tspan x="575" dy="-9">6.10 Kelola Edit Proyek</tspan><tspan x="575" dy="18">Kampung</tspan></text></g><g class="dfd-node dfd-process" data-id="process.level2.delete-action-make.11"><ellipse cx="575" cy="1107" rx="160" ry="35"/><text x="575" y="1099"><tspan x="575" dy="0">6.11 Hapus Data</tspan></text></g><g class="dfd-node dfd-process" data-id="process.level2.delete-action-make.12"><ellipse cx="575" cy="1205" rx="160" ry="35"/><text x="575" y="1197"><tspan x="575" dy="0">6.12 Kelola Edit User</tspan></text></g></g><g transform="translate(0 8294)"><text class="dfd-title" x="590" y="38">Level 2 Manajemen create now.format now  Str.upper  Str.random</text><g class="dfd-flow"><path d="M 233 135 L 233 131 L 415 131 L 415 127" marker-end="url(#arrow)"/><text x="324" y="124">Data Bisnis</text></g><g class="dfd-node dfd-entity" data-id="external.client"><rect x="58" y="100" width="175" height="70" rx="4"/><text x="145" y="127"><tspan x="145" dy="0">User</tspan></text></g><g class="dfd-node dfd-process" data-id="process.level2.create-now-format-now-str-upper-str-random.1"><ellipse cx="575" cy="127" rx="160" ry="35"/><text x="575" y="119"><tspan x="575" dy="-9">7.1 Kelola Create</tspan><tspan x="575" dy="18">Laporan Warga</tspan></text></g></g><g transform="translate(0 8890)"><text class="dfd-title" x="590" y="38">Level 2 Manajemen Handle Requests</text><g class="dfd-flow"><path d="M 575 162 L 575 190" marker-end="url(#arrow)"/><text x="575" y="169">Data Bisnis</text></g><g class="dfd-flow"><path d="M 575 260 L 575 288" marker-end="url(#arrow)"/><text x="575" y="267">Data Bisnis</text></g><g class="dfd-flow"><path d="M 233 135 L 233 131 L 415 131 L 415 127" marker-end="url(#arrow)"/><text x="324" y="124">Data Bisnis</text></g><g class="dfd-node dfd-entity" data-id="external.client"><rect x="58" y="100" width="175" height="70" rx="4"/><text x="145" y="127"><tspan x="145" dy="0">User</tspan></text></g><g class="dfd-node dfd-process" data-id="process.level2.handle-requests.1"><ellipse cx="575" cy="127" rx="160" ry="35"/><text x="575" y="119"><tspan x="575" dy="0">8.1 Perbarui Data</tspan></text></g><g class="dfd-node dfd-process" data-id="process.level2.handle-requests.2"><ellipse cx="575" cy="225" rx="160" ry="35"/><text x="575" y="217"><tspan x="575" dy="0">8.2 Ambil Data</tspan></text></g><g class="dfd-node dfd-process" data-id="process.level2.handle-requests.3"><ellipse cx="575" cy="323" rx="160" ry="35"/><text x="575" y="315"><tspan x="575" dy="-9">8.3 Kelola Handle</tspan><tspan x="575" dy="18">Requests</tspan></text></g></g><g transform="translate(0 9486)"><text class="dfd-title" x="590" y="38">Level 2 Manajemen Frontend Assets</text><g class="dfd-flow"><path d="M 575 162 L 575 190" marker-end="url(#arrow)"/><text x="575" y="169">Data Bisnis</text></g><g class="dfd-flow"><path d="M 233 135 L 233 131 L 415 131 L 415 127" marker-end="url(#arrow)"/><text x="324" y="124">Data Bisnis</text></g><g class="dfd-flow"><path d="M 575 260 L 575 288" marker-end="url(#arrow)"/><text x="575" y="267">Data Bisnis</text></g><g class="dfd-flow"><path d="M 575 358 L 575 386" marker-end="url(#arrow)"/><text x="575" y="365">Data Bisnis</text></g><g class="dfd-node dfd-entity" data-id="external.client"><rect x="58" y="100" width="175" height="70" rx="4"/><text x="145" y="127"><tspan x="145" dy="0">User</tspan></text></g><g class="dfd-node dfd-process" data-id="process.level2.frontend-assets.1"><ellipse cx="575" cy="127" rx="160" ry="35"/><text x="575" y="119"><tspan x="575" dy="0">9.1 Ambil Data</tspan></text></g><g class="dfd-node dfd-process" data-id="process.level2.frontend-assets.2"><ellipse cx="575" cy="225" rx="160" ry="35"/><text x="575" y="217"><tspan x="575" dy="-9">9.2 Kelola Frontend</tspan><tspan x="575" dy="18">Assets</tspan></text></g><g class="dfd-node dfd-process" data-id="process.level2.frontend-assets.3"><ellipse cx="575" cy="323" rx="160" ry="35"/><text x="575" y="315"><tspan x="575" dy="0">9.3 Ambil Data</tspan></text></g><g class="dfd-node dfd-process" data-id="process.level2.frontend-assets.4"><ellipse cx="575" cy="421" rx="160" ry="35"/><text x="575" y="413"><tspan x="575" dy="-9">9.4 Kelola Frontend</tspan><tspan x="575" dy="18">Assets</tspan></text></g></g><g transform="translate(0 10124)"><text class="dfd-title" x="590" y="38">Level 2 Manajemen File Upload</text><g class="dfd-flow"><path d="M 575 162 L 575 190" marker-end="url(#arrow)"/><text x="575" y="169">Data Bisnis</text></g><g class="dfd-flow"><path d="M 233 135 L 233 131 L 415 131 L 415 127" marker-end="url(#arrow)"/><text x="324" y="124">Data Bisnis</text></g><g class="dfd-node dfd-entity" data-id="external.client"><rect x="58" y="100" width="175" height="70" rx="4"/><text x="145" y="127"><tspan x="145" dy="0">User</tspan></text></g><g class="dfd-node dfd-process" data-id="process.level2.file-upload.1"><ellipse cx="575" cy="127" rx="160" ry="35"/><text x="575" y="119"><tspan x="575" dy="0">10.1 Validasi Data</tspan></text></g><g class="dfd-node dfd-process" data-id="process.level2.file-upload.2"><ellipse cx="575" cy="225" rx="160" ry="35"/><text x="575" y="217"><tspan x="575" dy="0">10.2 Kelola File Upload</tspan></text></g></g><g transform="translate(0 10720)"><text class="dfd-title" x="590" y="38">Level 2 Manajemen File Preview</text><g class="dfd-flow"><path d="M 233 135 L 233 131 L 415 131 L 415 127" marker-end="url(#arrow)"/><text x="324" y="124">Data Bisnis</text></g><g class="dfd-node dfd-entity" data-id="external.client"><rect x="58" y="100" width="175" height="70" rx="4"/><text x="145" y="127"><tspan x="145" dy="0">User</tspan></text></g><g class="dfd-node dfd-process" data-id="process.level2.file-preview.1"><ellipse cx="575" cy="127" rx="160" ry="35"/><text x="575" y="119"><tspan x="575" dy="0">11.1 Kelola File Preview</tspan></text></g></g><g transform="translate(0 11316)"><text class="dfd-title" x="590" y="38">Level 2 Manajemen Public Page</text><g class="dfd-flow"><path d="M 575 162 L 575 190" marker-end="url(#arrow)"/><text x="575" y="169">Data Bisnis</text></g><g class="dfd-flow"><path d="M 233 135 L 233 131 L 415 131 L 415 127" marker-end="url(#arrow)"/><text x="324" y="124">Data Bisnis</text></g><g class="dfd-flow"><path d="M 575 260 L 575 288" marker-end="url(#arrow)"/><text x="575" y="267">Data Bisnis</text></g><g class="dfd-flow"><path d="M 575 358 L 575 386" marker-end="url(#arrow)"/><text x="575" y="365">Data Bisnis</text></g><g class="dfd-flow"><path d="M 575 456 L 575 484" marker-end="url(#arrow)"/><text x="575" y="463">Data Bisnis</text></g><g class="dfd-flow"><path d="M 575 554 L 575 582" marker-end="url(#arrow)"/><text x="575" y="561">Data Bisnis</text></g><g class="dfd-flow"><path d="M 575 652 L 575 680" marker-end="url(#arrow)"/><text x="575" y="659">Data Bisnis</text></g><g class="dfd-flow"><path d="M 575 750 L 575 778" marker-end="url(#arrow)"/><text x="575" y="757">Data Bisnis</text></g><g class="dfd-flow"><path d="M 575 848 L 575 876" marker-end="url(#arrow)"/><text x="575" y="855">Data Bisnis</text></g><g class="dfd-flow"><path d="M 575 946 L 575 974" marker-end="url(#arrow)"/><text x="575" y="953">Data Bisnis</text></g><g class="dfd-flow"><path d="M 575 1044 L 575 1072" marker-end="url(#arrow)"/><text x="575" y="1051">Data Bisnis</text></g><g class="dfd-flow"><path d="M 575 1142 L 575 1170" marker-end="url(#arrow)"/><text x="575" y="1149">Data Bisnis</text></g><g class="dfd-flow"><path d="M 575 1240 L 575 1268" marker-end="url(#arrow)"/><text x="575" y="1247">Data Bisnis</text></g><g class="dfd-flow"><path d="M 575 1338 L 575 1366" marker-end="url(#arrow)"/><text x="575" y="1345">Data Bisnis</text></g><g class="dfd-flow"><path d="M 575 1436 L 575 1464" marker-end="url(#arrow)"/><text x="575" y="1443">Data Bisnis</text></g><g class="dfd-flow"><path d="M 575 1534 L 575 1562" marker-end="url(#arrow)"/><text x="575" y="1541">Data Bisnis</text></g><g class="dfd-flow"><path d="M 575 1632 L 575 1660" marker-end="url(#arrow)"/><text x="575" y="1639">Data Bisnis</text></g><g class="dfd-flow"><path d="M 575 1730 L 575 1758" marker-end="url(#arrow)"/><text x="575" y="1737">Data Bisnis</text></g><g class="dfd-node dfd-entity" data-id="external.client"><rect x="58" y="100" width="175" height="70" rx="4"/><text x="145" y="127"><tspan x="145" dy="0">User</tspan></text></g><g class="dfd-node dfd-process" data-id="process.level2.public-page.1"><ellipse cx="575" cy="127" rx="160" ry="35"/><text x="575" y="119"><tspan x="575" dy="0">12.1 Ambil Data</tspan></text></g><g class="dfd-node dfd-process" data-id="process.level2.public-page.2"><ellipse cx="575" cy="225" rx="160" ry="35"/><text x="575" y="217"><tspan x="575" dy="0">12.2 Kelola Public Page</tspan></text></g><g class="dfd-node dfd-process" data-id="process.level2.public-page.3"><ellipse cx="575" cy="323" rx="160" ry="35"/><text x="575" y="315"><tspan x="575" dy="0">12.3 Ambil Data</tspan></text></g><g class="dfd-node dfd-process" data-id="process.level2.public-page.4"><ellipse cx="575" cy="421" rx="160" ry="35"/><text x="575" y="413"><tspan x="575" dy="0">12.4 Kelola Public Page</tspan></text></g><g class="dfd-node dfd-process" data-id="process.level2.public-page.5"><ellipse cx="575" cy="519" rx="160" ry="35"/><text x="575" y="511"><tspan x="575" dy="0">12.5 Ambil Data</tspan></text></g><g class="dfd-node dfd-process" data-id="process.level2.public-page.6"><ellipse cx="575" cy="617" rx="160" ry="35"/><text x="575" y="609"><tspan x="575" dy="0">12.6 Kelola Public Page</tspan></text></g><g class="dfd-node dfd-process" data-id="process.level2.public-page.7"><ellipse cx="575" cy="715" rx="160" ry="35"/><text x="575" y="707"><tspan x="575" dy="0">12.7 Ambil Data</tspan></text></g><g class="dfd-node dfd-process" data-id="process.level2.public-page.8"><ellipse cx="575" cy="813" rx="160" ry="35"/><text x="575" y="805"><tspan x="575" dy="0">12.8 Kelola Public Page</tspan></text></g><g class="dfd-node dfd-process" data-id="process.level2.public-page.9"><ellipse cx="575" cy="911" rx="160" ry="35"/><text x="575" y="903"><tspan x="575" dy="0">12.9 Ambil Data</tspan></text></g><g class="dfd-node dfd-process" data-id="process.level2.public-page.10"><ellipse cx="575" cy="1009" rx="160" ry="35"/><text x="575" y="1001"><tspan x="575" dy="0">12.10 Kelola Public Page</tspan></text></g><g class="dfd-node dfd-process" data-id="process.level2.public-page.11"><ellipse cx="575" cy="1107" rx="160" ry="35"/><text x="575" y="1099"><tspan x="575" dy="0">12.11 Ambil Data</tspan></text></g><g class="dfd-node dfd-process" data-id="process.level2.public-page.12"><ellipse cx="575" cy="1205" rx="160" ry="35"/><text x="575" y="1197"><tspan x="575" dy="0">12.12 Kelola Public Page</tspan></text></g><g class="dfd-node dfd-process" data-id="process.level2.public-page.13"><ellipse cx="575" cy="1303" rx="160" ry="35"/><text x="575" y="1295"><tspan x="575" dy="0">12.13 Ambil Data</tspan></text></g><g class="dfd-node dfd-process" data-id="process.level2.public-page.14"><ellipse cx="575" cy="1401" rx="160" ry="35"/><text x="575" y="1393"><tspan x="575" dy="0">12.14 Kelola Public Page</tspan></text></g><g class="dfd-node dfd-process" data-id="process.level2.public-page.15"><ellipse cx="575" cy="1499" rx="160" ry="35"/><text x="575" y="1491"><tspan x="575" dy="0">12.15 Ambil Data</tspan></text></g><g class="dfd-node dfd-process" data-id="process.level2.public-page.16"><ellipse cx="575" cy="1597" rx="160" ry="35"/><text x="575" y="1589"><tspan x="575" dy="0">12.16 Kelola Public Page</tspan></text></g><g class="dfd-node dfd-process" data-id="process.level2.public-page.17"><ellipse cx="575" cy="1695" rx="160" ry="35"/><text x="575" y="1687"><tspan x="575" dy="0">12.17 Ambil Data</tspan></text></g><g class="dfd-node dfd-process" data-id="process.level2.public-page.18"><ellipse cx="575" cy="1793" rx="160" ry="35"/><text x="575" y="1785"><tspan x="575" dy="0">12.18 Kelola Public Page</tspan></text></g></g><g transform="translate(0 13326)"><text class="dfd-title" x="590" y="38">Level 2 Manajemen Laporan Warga</text><g class="dfd-flow"><path d="M 575 162 L 575 190" marker-end="url(#arrow)"/><text x="575" y="169">Data Bisnis</text></g><g class="dfd-flow"><path d="M 575 260 L 575 288" marker-end="url(#arrow)"/><text x="575" y="267">Data Bisnis</text></g><g class="dfd-flow"><path d="M 233 135 L 233 131 L 415 131 L 415 127" marker-end="url(#arrow)"/><text x="324" y="124">Data Bisnis</text></g><g class="dfd-flow"><path d="M 575 358 L 575 386" marker-end="url(#arrow)"/><text x="575" y="365">Data Bisnis</text></g><g class="dfd-flow"><path d="M 575 456 L 575 484" marker-end="url(#arrow)"/><text x="575" y="463">Data Bisnis</text></g><g class="dfd-flow"><path d="M 575 554 L 575 582" marker-end="url(#arrow)"/><text x="575" y="561">Data Bisnis</text></g><g class="dfd-node dfd-entity" data-id="external.client"><rect x="58" y="100" width="175" height="70" rx="4"/><text x="145" y="127"><tspan x="145" dy="0">User</tspan></text></g><g class="dfd-node dfd-process" data-id="process.level2.laporan-warga.1"><ellipse cx="575" cy="127" rx="160" ry="35"/><text x="575" y="119"><tspan x="575" dy="0">13.1 Validasi Data</tspan></text></g><g class="dfd-node dfd-process" data-id="process.level2.laporan-warga.2"><ellipse cx="575" cy="225" rx="160" ry="35"/><text x="575" y="217"><tspan x="575" dy="0">13.2 Simpan Data</tspan></text></g><g class="dfd-node dfd-process" data-id="process.level2.laporan-warga.3"><ellipse cx="575" cy="323" rx="160" ry="35"/><text x="575" y="315"><tspan x="575" dy="-9">13.3 Buka Form Laporan</tspan><tspan x="575" dy="18">Warga</tspan></text></g><g class="dfd-node dfd-process" data-id="process.level2.laporan-warga.4"><ellipse cx="575" cy="421" rx="160" ry="35"/><text x="575" y="413"><tspan x="575" dy="0">13.4 Validasi Data</tspan></text></g><g class="dfd-node dfd-process" data-id="process.level2.laporan-warga.5"><ellipse cx="575" cy="519" rx="160" ry="35"/><text x="575" y="511"><tspan x="575" dy="0">13.5 Simpan Data</tspan></text></g><g class="dfd-node dfd-process" data-id="process.level2.laporan-warga.6"><ellipse cx="575" cy="617" rx="160" ry="35"/><text x="575" y="609"><tspan x="575" dy="-9">13.6 Simpan Laporan</tspan><tspan x="575" dy="18">Warga</tspan></text></g></g><g transform="translate(0 14160)"><text class="dfd-title" x="590" y="38">Level 2 Manajemen Admin Page</text><g class="dfd-flow"><path d="M 233 135 L 233 131 L 415 131 L 415 127" marker-end="url(#arrow)"/><text x="324" y="124">Data Bisnis</text></g><g class="dfd-flow"><path d="M 575 162 L 575 190" marker-end="url(#arrow)"/><text x="575" y="169">Data Bisnis</text></g><g class="dfd-flow"><path d="M 575 260 L 575 288" marker-end="url(#arrow)"/><text x="575" y="267">Data Bisnis</text></g><g class="dfd-flow"><path d="M 575 358 L 575 386" marker-end="url(#arrow)"/><text x="575" y="365">Data Bisnis</text></g><g class="dfd-flow"><path d="M 575 456 L 575 484" marker-end="url(#arrow)"/><text x="575" y="463">Data Bisnis</text></g><g class="dfd-node dfd-entity" data-id="external.client"><rect x="58" y="100" width="175" height="70" rx="4"/><text x="145" y="127"><tspan x="145" dy="0">User</tspan></text></g><g class="dfd-node dfd-process" data-id="process.level2.admin-page.1"><ellipse cx="575" cy="127" rx="160" ry="35"/><text x="575" y="119"><tspan x="575" dy="0">14.1 Kelola Admin Page</tspan></text></g><g class="dfd-node dfd-process" data-id="process.level2.admin-page.2"><ellipse cx="575" cy="225" rx="160" ry="35"/><text x="575" y="217"><tspan x="575" dy="0">14.2 Kelola Admin Page</tspan></text></g><g class="dfd-node dfd-process" data-id="process.level2.admin-page.3"><ellipse cx="575" cy="323" rx="160" ry="35"/><text x="575" y="315"><tspan x="575" dy="0">14.3 Kelola Admin Page</tspan></text></g><g class="dfd-node dfd-process" data-id="process.level2.admin-page.4"><ellipse cx="575" cy="421" rx="160" ry="35"/><text x="575" y="413"><tspan x="575" dy="0">14.4 Kelola Admin Page</tspan></text></g><g class="dfd-node dfd-process" data-id="process.level2.admin-page.5"><ellipse cx="575" cy="519" rx="160" ry="35"/><text x="575" y="511"><tspan x="575" dy="0">14.5 Kelola Admin Page</tspan></text></g></g></svg>