<svg xmlns="http://www.w3.org/2000/svg" viewBox="0 0 1180 1618" role="img" aria-label="DFD Level 1"><defs><marker id="arrow" markerWidth="12" markerHeight="12" refX="10" refY="6" orient="auto"><path d="M2,2 L10,6 L2,10 z"/></marker></defs><style>.dfd-title{font:700 22px Arial,sans-serif;text-anchor:middle;fill:#172033}.dfd-node rect,.dfd-node ellipse,.dfd-store path{fill:#fff;stroke:#172033;stroke-width:2}.dfd-process ellipse{fill:#f9fcff}.dfd-entity rect{fill:#fff}.dfd-store path{fill:none}.dfd-node text{font:600 13px Arial,sans-serif;text-anchor:middle;dominant-baseline:middle;fill:#172033}.dfd-store text{font-weight:600}.dfd-flow path{fill:none;stroke:#2f3b4f;stroke-width:1.6;shape-rendering:geometricPrecision}.dfd-flow text{font:12px Arial,sans-serif;text-anchor:middle;fill:#2f3b4f;paint-order:stroke;stroke:#fff;stroke-width:5px;stroke-linejoin:round}marker path{fill:#2f3b4f}@media(prefers-color-scheme:dark){.dfd-title,.dfd-node text{fill:#eef3ff}.dfd-node rect,.dfd-node ellipse{fill:#152033;stroke:#d8e1f3}.dfd-process ellipse{fill:#172a42}.dfd-store path{stroke:#d8e1f3}.dfd-flow path{stroke:#c7d2e6}.dfd-flow text{fill:#eef3ff;stroke:#111827}marker path{fill:#c7d2e6}}</style><g transform="translate(0 0)"><text class="dfd-title" x="590" y="38">Level 1 Process Decomposition</text><g class="dfd-flow"><path d="M 233 135 L 233 131 L 415 131 L 415 127" marker-end="url(#arrow)"/><text x="324" y="124">Data Pengguna</text></g><g class="dfd-flow"><path d="M 233 135 L 233 180 L 415 180 L 415 225" marker-end="url(#arrow)"/><text x="324" y="173">Data Pengguna</text></g><g class="dfd-flow"><path d="M 233 135 L 233 229 L 415 229 L 415 323" marker-end="url(#arrow)"/><text x="324" y="222">Data Pengguna</text></g><g class="dfd-flow"><path d="M 233 135 L 233 278 L 415 278 L 415 421" marker-end="url(#arrow)"/><text x="324" y="271">Data Pengguna</text></g><g class="dfd-flow"><path d="M 233 135 L 233 327 L 415 327 L 415 519" marker-end="url(#arrow)"/><text x="324" y="320">Data Pengguna</text></g><g class="dfd-flow"><path d="M 233 135 L 233 376 L 415 376 L 415 617" marker-end="url(#arrow)"/><text x="324" y="369">Data Pengguna</text></g><g class="dfd-flow"><path d="M 233 135 L 233 425 L 415 425 L 415 715" marker-end="url(#arrow)"/><text x="324" y="418">Data Pengguna</text></g><g class="dfd-flow"><path d="M 233 135 L 233 474 L 415 474 L 415 813" marker-end="url(#arrow)"/><text x="324" y="467">Data Pengguna</text></g><g class="dfd-flow"><path d="M 233 135 L 233 523 L 415 523 L 415 911" marker-end="url(#arrow)"/><text x="324" y="516">Data Pengguna</text></g><g class="dfd-flow"><path d="M 233 135 L 233 572 L 415 572 L 415 1009" marker-end="url(#arrow)"/><text x="324" y="565">Data Pengguna</text></g><g class="dfd-flow"><path d="M 233 135 L 233 621 L 415 621 L 415 1107" marker-end="url(#arrow)"/><text x="324" y="614">Data Pengguna</text></g><g class="dfd-flow"><path d="M 233 135 L 233 670 L 415 670 L 415 1205" marker-end="url(#arrow)"/><text x="324" y="663">Data Pengguna</text></g><g class="dfd-flow"><path d="M 233 135 L 233 719 L 415 719 L 415 1303" marker-end="url(#arrow)"/><text x="324" y="712">Data Pengguna</text></g><g class="dfd-flow"><path d="M 233 135 L 233 768 L 415 768 L 415 1401" marker-end="url(#arrow)"/><text x="324" y="761">Data Pengguna</text></g><g class="dfd-node dfd-entity" data-id="external.client"><rect x="58" y="100" width="175" height="70" rx="4"/><text x="145" y="127"><tspan x="145" dy="0">User</tspan></text></g><g class="dfd-node dfd-process" data-id="process.group.authentication"><ellipse cx="575" cy="127" rx="160" ry="35"/><text x="575" y="119"><tspan x="575" dy="0">1.0 Autentikasi</tspan></text></g><g class="dfd-node dfd-process" data-id="process.group.product"><ellipse cx="575" cy="225" rx="160" ry="35"/><text x="575" y="217"><tspan x="575" dy="0">2.0 Manajemen Produk</tspan></text></g><g class="dfd-node dfd-process" data-id="process.group.dashboard-g-e-t-h-e-a-d-admin-filament-icon-resolve-filament-has-top-navigation-filament-get-widgets-this-filter-visible-widgets-this-get-widgets"><ellipse cx="575" cy="323" rx="160" ry="35"/><text x="575" y="315"><tspan x="575" dy="-63">3.0 Manajemen Dashboard</tspan><tspan x="575" dy="18">G E T| H E A D admin __</tspan><tspan x="575" dy="18">Filament Icon.resolve</tspan><tspan x="575" dy="18">Filament.has Top</tspan><tspan x="575" dy="18">Navigation Filament.get</tspan><tspan x="575" dy="18">Widgets this.filter</tspan><tspan x="575" dy="18">Visible Widgets this.get</tspan><tspan x="575" dy="18">Widgets</tspan></text></g><g class="dfd-node dfd-process" data-id="process.group.create-action-make"><ellipse cx="575" cy="421" rx="160" ry="35"/><text x="575" y="413"><tspan x="575" dy="-9">4.0 Manajemen Create</tspan><tspan x="575" dy="18">Action.make</tspan></text></g><g class="dfd-node dfd-process" data-id="process.group.create"><ellipse cx="575" cy="519" rx="160" ry="35"/><text x="575" y="511"><tspan x="575" dy="0">5.0 Manajemen create</tspan></text></g><g class="dfd-node dfd-process" data-id="process.group.delete-action-make"><ellipse cx="575" cy="617" rx="160" ry="35"/><text x="575" y="609"><tspan x="575" dy="-9">6.0 Manajemen Delete</tspan><tspan x="575" dy="18">Action.make</tspan></text></g><g class="dfd-node dfd-process" data-id="process.group.create-now-format-now-str-upper-str-random"><ellipse cx="575" cy="715" rx="160" ry="35"/><text x="575" y="707"><tspan x="575" dy="-18">7.0 Manajemen create</tspan><tspan x="575" dy="18">now.format now Str.upper</tspan><tspan x="575" dy="18">Str.random</tspan></text></g><g class="dfd-node dfd-process" data-id="process.group.handle-requests"><ellipse cx="575" cy="813" rx="160" ry="35"/><text x="575" y="805"><tspan x="575" dy="-9">8.0 Manajemen Handle</tspan><tspan x="575" dy="18">Requests</tspan></text></g><g class="dfd-node dfd-process" data-id="process.group.frontend-assets"><ellipse cx="575" cy="911" rx="160" ry="35"/><text x="575" y="903"><tspan x="575" dy="-9">9.0 Manajemen Frontend</tspan><tspan x="575" dy="18">Assets</tspan></text></g><g class="dfd-node dfd-process" data-id="process.group.file-upload"><ellipse cx="575" cy="1009" rx="160" ry="35"/><text x="575" y="1001"><tspan x="575" dy="-9">10.0 Manajemen File</tspan><tspan x="575" dy="18">Upload</tspan></text></g><g class="dfd-node dfd-process" data-id="process.group.file-preview"><ellipse cx="575" cy="1107" rx="160" ry="35"/><text x="575" y="1099"><tspan x="575" dy="-9">11.0 Manajemen File</tspan><tspan x="575" dy="18">Preview</tspan></text></g><g class="dfd-node dfd-process" data-id="process.group.public-page"><ellipse cx="575" cy="1205" rx="160" ry="35"/><text x="575" y="1197"><tspan x="575" dy="-9">12.0 Manajemen Public</tspan><tspan x="575" dy="18">Page</tspan></text></g><g class="dfd-node dfd-process" data-id="process.group.laporan-warga"><ellipse cx="575" cy="1303" rx="160" ry="35"/><text x="575" y="1295"><tspan x="575" dy="-9">13.0 Manajemen Laporan</tspan><tspan x="575" dy="18">Warga</tspan></text></g><g class="dfd-node dfd-process" data-id="process.group.admin-page"><ellipse cx="575" cy="1401" rx="160" ry="35"/><text x="575" y="1393"><tspan x="575" dy="-9">14.0 Manajemen Admin</tspan><tspan x="575" dy="18">Page</tspan></text></g></g></svg>